# xmcd
#
# Track frame offsets: 
#        150
#        14168
#        30256
#        50979
#        62214
#        75452
#        94652
#        115997
#        139982
#        164672
#        183437
#        206005
#        223023
#
# Disc length: 3196 seconds
#
# Revision: 0
# Processed by: cddbd v1.5.2PL0 Copyright (c) Steve Scherf et al.
# Submitted via: ExactAudioCopy v1.0b4
#
DISCID=c20c7a0d
DTITLE=Cherry and The Lowboys - Naked in Outer Space
DYEAR=2016
DGENRE=Blues
TTITLE0=Big Block Lover
TTITLE1=Naked in Outer Space
TTITLE2=Company Car
TTITLE3=Attack of the Boogie Monster
TTITLE4=Voodoo Coupe
TTITLE5=Dig It
TTITLE6=Leave Me Cold
TTITLE7=Mexican Sky
TTITLE8=Dirty Boy
TTITLE9=Caveman
TTITLE10=Spacewalk
TTITLE11=Deluxe
TTITLE12=Psycho-Sonic
EXTD=
EXTT0=
EXTT1=
EXTT2=
EXTT3=
EXTT4=
EXTT5=
EXTT6=
EXTT7=
EXTT8=
EXTT9=
EXTT10=
EXTT11=
EXTT12=
PLAYORDER=
